<mxfile host="65bd71144e">
    <diagram id="KsdnMBLfTyLPeN08rfrZ" name="Page-1">
        <mxGraphModel dx="4325" dy="3675" grid="1" gridSize="10" guides="1" tooltips="1" connect="1" arrows="1" fold="1" page="1" pageScale="1" pageWidth="850" pageHeight="1100" math="0" shadow="0">
            <root>
                <mxCell id="0"/>
                <mxCell id="1" parent="0"/>
                <mxCell id="2" value="GSM Registration" style="swimlane;startSize=30;horizontal=1;" parent="1" vertex="1">
                    <mxGeometry width="3300" height="510" as="geometry"/>
                </mxCell>
                <mxCell id="User.1" value="User" style="shape=note;whiteSpace=wrap;html=1;backgroundOutline=1;darkOpacity=0.05;fillColor=#fee750;strokeColor=none;fontSize=16;fontStyle=0;rotation=0;shadow=1;" parent="2" vertex="1">
                    <mxGeometry x="80" y="210" width="120" height="120" as="geometry"/>
                </mxCell>
                <mxCell id="User.2" value="User" style="shape=note;whiteSpace=wrap;html=1;backgroundOutline=1;darkOpacity=0.05;fillColor=#fee750;strokeColor=none;fontSize=16;fontStyle=0;rotation=0;shadow=1;" parent="2" vertex="1">
                    <mxGeometry x="1300" y="120" width="120" height="120" as="geometry"/>
                </mxCell>
                <mxCell id="RegisterUser" value="Register User" style="shape=note;whiteSpace=wrap;html=1;backgroundOutline=1;darkOpacity=0.05;fillColor=#a7c5fc;strokeColor=none;fontSize=16;fontStyle=0;rotation=0;shadow=1;" parent="2" vertex="1">
                    <mxGeometry x="300" y="210" width="120" height="120" as="geometry"/>
                </mxCell>
                <mxCell id="Policy1" value="- email, password and name must be provided\n- email is unique\n- password: 8-16 characters, include number, uppercase, lowercase\n- referral code is optional" style="shape=note;whiteSpace=wrap;html=1;backgroundOutline=1;darkOpacity=0.05;fillColor=#fef5b2;strokeColor=none;fontSize=16;fontStyle=0;rotation=0;shadow=1;" parent="2" vertex="1">
                    <mxGeometry x="520" y="180" width="240" height="180" as="geometry"/>
                </mxCell>
                <mxCell id="UserRegistered" value="User Registered" style="shape=note;whiteSpace=wrap;html=1;backgroundOutline=1;darkOpacity=0.05;fillColor=#feae57;strokeColor=none;fontSize=16;fontStyle=0;rotation=0;shadow=1;" parent="2" vertex="1">
                    <mxGeometry x="860" y="210" width="120" height="120" as="geometry"/>
                </mxCell>
                <mxCell id="DraftUserProfile" value="Draft User Profile" style="shape=note;whiteSpace=wrap;html=1;backgroundOutline=1;darkOpacity=0.05;fillColor=#b0deb3;strokeColor=none;fontSize=16;fontStyle=0;rotation=0;shadow=1;" parent="2" vertex="1">
                    <mxGeometry x="1080" y="135" width="120" height="120" as="geometry"/>
                </mxCell>
                <mxCell id="ResendOTP" value="Resend OTP" style="shape=note;whiteSpace=wrap;html=1;backgroundOutline=1;darkOpacity=0.05;fillColor=#a7c5fc;strokeColor=none;fontSize=16;fontStyle=0;rotation=0;shadow=1;" parent="2" vertex="1">
                    <mxGeometry x="1580" y="105" width="120" height="120" as="geometry"/>
                </mxCell>
                <mxCell id="ResendOTPProcess" value="Users can request a new OTP if\nthey do not receive OPT\n- timeout will be reset\n- user cannot request more than\n5 OTPs continuously" style="shape=note;whiteSpace=wrap;html=1;backgroundOutline=1;darkOpacity=0.05;fillColor=#fef5b2;strokeColor=none;fontSize=16;fontStyle=0;rotation=0;shadow=1;" parent="2" vertex="1">
                    <mxGeometry x="1860" y="90" width="240" height="180" as="geometry"/>
                </mxCell>
                <mxCell id="ResendOTPGenerated" value="Resend OTP Generated" style="shape=note;whiteSpace=wrap;html=1;backgroundOutline=1;darkOpacity=0.05;fillColor=#feae57;strokeColor=none;fontSize=16;fontStyle=0;rotation=0;shadow=1;" parent="2" vertex="1">
                    <mxGeometry x="2200" y="135" width="120" height="120" as="geometry"/>
                </mxCell>
                <mxCell id="SendOTPProcess" value="Send OTP Process" style="shape=note;whiteSpace=wrap;html=1;backgroundOutline=1;darkOpacity=0.05;fillColor=#da99e6;strokeColor=none;fontSize=16;fontStyle=0;rotation=0;shadow=1;" parent="2" vertex="1">
                    <mxGeometry x="2420" y="210" width="120" height="120" as="geometry"/>
                </mxCell>
                <mxCell id="GenerateOTPProcess" value="Generate OTP Process" style="shape=note;whiteSpace=wrap;html=1;backgroundOutline=1;darkOpacity=0.05;fillColor=#da99e6;strokeColor=none;fontSize=16;fontStyle=0;rotation=0;shadow=1;" parent="2" vertex="1">
                    <mxGeometry x="1080" y="285" width="120" height="120" as="geometry"/>
                </mxCell>
                <mxCell id="GenerateOTP" value="Generate OTP" style="shape=note;whiteSpace=wrap;html=1;backgroundOutline=1;darkOpacity=0.05;fillColor=#a7c5fc;strokeColor=none;fontSize=16;fontStyle=0;rotation=0;shadow=1;" parent="2" vertex="1">
                    <mxGeometry x="1300" y="285" width="120" height="120" as="geometry"/>
                </mxCell>
                <mxCell id="ValidateOTPProcess" value="- OTP is a 6- digit string\n- OTP is only valid for 4 minutes" style="shape=note;whiteSpace=wrap;html=1;backgroundOutline=1;darkOpacity=0.05;fillColor=#fef5b2;strokeColor=none;fontSize=16;fontStyle=0;rotation=0;shadow=1;" parent="2" vertex="1">
                    <mxGeometry x="1520" y="255" width="240" height="180" as="geometry"/>
                </mxCell>
                <mxCell id="RegisterOTPGenerated" value="Register OTP Generated" style="shape=note;whiteSpace=wrap;html=1;backgroundOutline=1;darkOpacity=0.05;fillColor=#feae57;strokeColor=none;fontSize=16;fontStyle=0;rotation=0;shadow=1;" parent="2" vertex="1">
                    <mxGeometry x="2200" y="285" width="120" height="120" as="geometry"/>
                </mxCell>
                <mxCell id="SendOTP" value="Send OTP" style="shape=note;whiteSpace=wrap;html=1;backgroundOutline=1;darkOpacity=0.05;fillColor=#a7c5fc;strokeColor=none;fontSize=16;fontStyle=0;rotation=0;shadow=1;" parent="2" vertex="1">
                    <mxGeometry x="2640" y="210" width="120" height="120" as="geometry"/>
                </mxCell>
                <mxCell id="EmailService" value="Email Service" style="shape=note;whiteSpace=wrap;html=1;backgroundOutline=1;darkOpacity=0.05;fillColor=#ffb3c5;strokeColor=none;fontSize=16;fontStyle=0;rotation=0;shadow=1;" parent="2" vertex="1">
                    <mxGeometry x="2860" y="210" width="120" height="120" as="geometry"/>
                </mxCell>
                <mxCell id="RegisterOTPSent" value="Register OTP Sent" style="shape=note;whiteSpace=wrap;html=1;backgroundOutline=1;darkOpacity=0.05;fillColor=#feae57;strokeColor=none;fontSize=16;fontStyle=0;rotation=0;shadow=1;" parent="2" vertex="1">
                    <mxGeometry x="3080" y="210" width="120" height="120" as="geometry"/>
                </mxCell>
                <mxCell id="flow1" style="edgeStyle=orthogonalEdgeStyle;rounded=0;orthogonalLoop=1;jettySize=auto;html=1;noEdgeStyle=1;orthogonal=1;" parent="2" source="User.1" target="RegisterUser" edge="1">
                    <mxGeometry relative="1" as="geometry">
                        <Array as="points">
                            <mxPoint x="212" y="270"/>
                            <mxPoint x="288" y="270"/>
                        </Array>
                    </mxGeometry>
                </mxCell>
                <mxCell id="flow2" style="edgeStyle=orthogonalEdgeStyle;rounded=0;orthogonalLoop=1;jettySize=auto;html=1;noEdgeStyle=1;orthogonal=1;" parent="2" source="RegisterUser" target="Policy1" edge="1">
                    <mxGeometry relative="1" as="geometry">
                        <Array as="points">
                            <mxPoint x="432" y="270"/>
                            <mxPoint x="508" y="270"/>
                        </Array>
                    </mxGeometry>
                </mxCell>
                <mxCell id="flow3" style="edgeStyle=orthogonalEdgeStyle;rounded=0;orthogonalLoop=1;jettySize=auto;html=1;noEdgeStyle=1;orthogonal=1;" parent="2" source="Policy1" target="UserRegistered" edge="1">
                    <mxGeometry relative="1" as="geometry">
                        <Array as="points">
                            <mxPoint x="772" y="270"/>
                            <mxPoint x="848" y="270"/>
                        </Array>
                    </mxGeometry>
                </mxCell>
                <mxCell id="flow4" style="edgeStyle=orthogonalEdgeStyle;rounded=0;orthogonalLoop=1;jettySize=auto;html=1;noEdgeStyle=1;orthogonal=1;" parent="2" source="UserRegistered" target="DraftUserProfile" edge="1">
                    <mxGeometry relative="1" as="geometry">
                        <Array as="points">
                            <mxPoint x="992" y="242.5"/>
                            <mxPoint x="1068" y="195"/>
                        </Array>
                    </mxGeometry>
                </mxCell>
                <mxCell id="flow5" style="edgeStyle=orthogonalEdgeStyle;rounded=0;orthogonalLoop=1;jettySize=auto;html=1;noEdgeStyle=1;orthogonal=1;" parent="2" source="DraftUserProfile" target="User.2" edge="1">
                    <mxGeometry relative="1" as="geometry">
                        <Array as="points">
                            <mxPoint x="1212" y="195"/>
                            <mxPoint x="1288" y="180"/>
                        </Array>
                    </mxGeometry>
                </mxCell>
                <mxCell id="flow6" style="edgeStyle=orthogonalEdgeStyle;rounded=0;orthogonalLoop=1;jettySize=auto;html=1;noEdgeStyle=1;orthogonal=1;" parent="2" source="User.2" target="ResendOTP" edge="1">
                    <mxGeometry relative="1" as="geometry">
                        <Array as="points">
                            <mxPoint x="1432" y="180"/>
                            <mxPoint x="1508" y="165"/>
                        </Array>
                    </mxGeometry>
                </mxCell>
                <mxCell id="flow7" style="edgeStyle=orthogonalEdgeStyle;rounded=0;orthogonalLoop=1;jettySize=auto;html=1;noEdgeStyle=1;orthogonal=1;" parent="2" source="ResendOTP" target="ResendOTPProcess" edge="1">
                    <mxGeometry relative="1" as="geometry">
                        <Array as="points">
                            <mxPoint x="1772" y="165"/>
                            <mxPoint x="1848" y="180"/>
                        </Array>
                    </mxGeometry>
                </mxCell>
                <mxCell id="flow8" style="edgeStyle=orthogonalEdgeStyle;rounded=0;orthogonalLoop=1;jettySize=auto;html=1;noEdgeStyle=1;orthogonal=1;" parent="2" source="ResendOTPProcess" target="ResendOTPGenerated" edge="1">
                    <mxGeometry relative="1" as="geometry">
                        <Array as="points">
                            <mxPoint x="2112" y="180"/>
                            <mxPoint x="2188" y="195"/>
                        </Array>
                    </mxGeometry>
                </mxCell>
                <mxCell id="flow9" style="edgeStyle=orthogonalEdgeStyle;rounded=0;orthogonalLoop=1;jettySize=auto;html=1;noEdgeStyle=1;orthogonal=1;" parent="2" source="ResendOTPGenerated" target="SendOTPProcess" edge="1">
                    <mxGeometry relative="1" as="geometry">
                        <Array as="points">
                            <mxPoint x="2332" y="195"/>
                            <mxPoint x="2408" y="242.5"/>
                        </Array>
                    </mxGeometry>
                </mxCell>
                <mxCell id="flow10" style="edgeStyle=orthogonalEdgeStyle;rounded=0;orthogonalLoop=1;jettySize=auto;html=1;noEdgeStyle=1;orthogonal=1;" parent="2" source="UserRegistered" target="GenerateOTPProcess" edge="1">
                    <mxGeometry relative="1" as="geometry">
                        <Array as="points">
                            <mxPoint x="992" y="297.5"/>
                            <mxPoint x="1068" y="345"/>
                        </Array>
                    </mxGeometry>
                </mxCell>
                <mxCell id="flow11" style="edgeStyle=orthogonalEdgeStyle;rounded=0;orthogonalLoop=1;jettySize=auto;html=1;noEdgeStyle=1;orthogonal=1;" parent="2" source="GenerateOTPProcess" target="GenerateOTP" edge="1">
                    <mxGeometry relative="1" as="geometry">
                        <Array as="points">
                            <mxPoint x="1212" y="345"/>
                            <mxPoint x="1288" y="345"/>
                        </Array>
                    </mxGeometry>
                </mxCell>
                <mxCell id="flow12" style="edgeStyle=orthogonalEdgeStyle;rounded=0;orthogonalLoop=1;jettySize=auto;html=1;noEdgeStyle=1;orthogonal=1;" parent="2" source="GenerateOTP" target="ValidateOTPProcess" edge="1">
                    <mxGeometry relative="1" as="geometry">
                        <Array as="points">
                            <mxPoint x="1432" y="345"/>
                            <mxPoint x="1508" y="345"/>
                        </Array>
                    </mxGeometry>
                </mxCell>
                <mxCell id="flow13" style="edgeStyle=orthogonalEdgeStyle;rounded=0;orthogonalLoop=1;jettySize=auto;html=1;noEdgeStyle=1;orthogonal=1;" parent="2" source="ValidateOTPProcess" target="RegisterOTPGenerated" edge="1">
                    <mxGeometry relative="1" as="geometry">
                        <Array as="points">
                            <mxPoint x="1772" y="345"/>
                            <mxPoint x="1810" y="345"/>
                            <mxPoint x="2150" y="345"/>
                            <mxPoint x="2188" y="345"/>
                        </Array>
                    </mxGeometry>
                </mxCell>
                <mxCell id="flow14" style="edgeStyle=orthogonalEdgeStyle;rounded=0;orthogonalLoop=1;jettySize=auto;html=1;noEdgeStyle=1;orthogonal=1;" parent="2" source="RegisterOTPGenerated" target="SendOTPProcess" edge="1">
                    <mxGeometry relative="1" as="geometry">
                        <Array as="points">
                            <mxPoint x="2332" y="345"/>
                            <mxPoint x="2408" y="297.5"/>
                        </Array>
                    </mxGeometry>
                </mxCell>
                <mxCell id="flow15" style="edgeStyle=orthogonalEdgeStyle;rounded=0;orthogonalLoop=1;jettySize=auto;html=1;noEdgeStyle=1;orthogonal=1;" parent="2" source="SendOTPProcess" target="SendOTP" edge="1">
                    <mxGeometry relative="1" as="geometry">
                        <Array as="points">
                            <mxPoint x="2552" y="270"/>
                            <mxPoint x="2628" y="270"/>
                        </Array>
                    </mxGeometry>
                </mxCell>
                <mxCell id="flow16" style="edgeStyle=orthogonalEdgeStyle;rounded=0;orthogonalLoop=1;jettySize=auto;html=1;noEdgeStyle=1;orthogonal=1;" parent="2" source="SendOTP" target="EmailService" edge="1">
                    <mxGeometry relative="1" as="geometry">
                        <Array as="points">
                            <mxPoint x="2772" y="270"/>
                            <mxPoint x="2848" y="270"/>
                        </Array>
                    </mxGeometry>
                </mxCell>
                <mxCell id="flow17" style="edgeStyle=orthogonalEdgeStyle;rounded=0;orthogonalLoop=1;jettySize=auto;html=1;noEdgeStyle=1;orthogonal=1;" parent="2" source="EmailService" target="RegisterOTPSent" edge="1">
                    <mxGeometry relative="1" as="geometry">
                        <Array as="points">
                            <mxPoint x="2992" y="270"/>
                            <mxPoint x="3068" y="270"/>
                        </Array>
                    </mxGeometry>
                </mxCell>
            </root>
        </mxGraphModel>
    </diagram>
</mxfile>